<mxfile host="www.draw.io" modified="2019-12-20T10:26:00.771Z" agent="Mozilla/5.0 (Windows NT 10.0; Win64; x64) AppleWebKit/537.36 (KHTML, like Gecko) Chrome/79.0.3945.88 Safari/537.36" etag="JyqxYJiiY17U-__O-aeq" version="12.4.3" type="github" pages="2">
  <diagram id="Hmn_u4zlj8GJ79A8dbIJ" name="Page-1">
    <mxGraphModel dx="2235" dy="780" grid="1" gridSize="10" guides="1" tooltips="1" connect="1" arrows="1" fold="1" page="1" pageScale="1" pageWidth="827" pageHeight="1169" math="0" shadow="0">
      <root>
        <mxCell id="0"/>
        <mxCell id="1" parent="0"/>
        <mxCell id="Ti00Svf3lrXy-y9HDl-r-8" value="" style="rounded=0;whiteSpace=wrap;html=1;" parent="1" vertex="1">
          <mxGeometry x="-79.5" y="20" width="519" height="100" as="geometry"/>
        </mxCell>
        <mxCell id="baZqyHviwPIkWMM0uBHd-1" value="腾讯云剪" style="rounded=0;whiteSpace=wrap;html=1;" parent="1" vertex="1">
          <mxGeometry x="-27.5" y="40" width="120" height="60" as="geometry"/>
        </mxCell>
        <mxCell id="baZqyHviwPIkWMM0uBHd-2" value="腾讯云点播" style="rounded=0;whiteSpace=wrap;html=1;" parent="1" vertex="1">
          <mxGeometry x="255" y="40" width="120" height="60" as="geometry"/>
        </mxCell>
        <mxCell id="baZqyHviwPIkWMM0uBHd-3" value="虎牙视频站" style="rounded=0;whiteSpace=wrap;html=1;" parent="1" vertex="1">
          <mxGeometry x="120" y="510" width="120" height="50" as="geometry"/>
        </mxCell>
        <mxCell id="baZqyHviwPIkWMM0uBHd-4" value="oss" style="rounded=0;whiteSpace=wrap;html=1;" parent="1" vertex="1">
          <mxGeometry x="301" y="594.5" width="90" height="31" as="geometry"/>
        </mxCell>
        <mxCell id="baZqyHviwPIkWMM0uBHd-5" value="用户" style="shape=umlActor;verticalLabelPosition=bottom;labelBackgroundColor=#ffffff;verticalAlign=top;html=1;outlineConnect=0;" parent="1" vertex="1">
          <mxGeometry x="-150" y="550" width="30" height="60" as="geometry"/>
        </mxCell>
        <mxCell id="baZqyHviwPIkWMM0uBHd-9" value="上传" style="rounded=0;whiteSpace=wrap;html=1;" parent="1" vertex="1">
          <mxGeometry x="-10" y="590" width="70" height="40" as="geometry"/>
        </mxCell>
        <mxCell id="baZqyHviwPIkWMM0uBHd-10" value="转码" style="rounded=0;whiteSpace=wrap;html=1;" parent="1" vertex="1">
          <mxGeometry x="97.5" y="590" width="70" height="40" as="geometry"/>
        </mxCell>
        <mxCell id="baZqyHviwPIkWMM0uBHd-11" value="审核" style="rounded=0;whiteSpace=wrap;html=1;" parent="1" vertex="1">
          <mxGeometry x="205" y="590" width="70" height="40" as="geometry"/>
        </mxCell>
        <mxCell id="baZqyHviwPIkWMM0uBHd-12" value="虎牙云剪" style="rounded=0;whiteSpace=wrap;html=1;" parent="1" vertex="1">
          <mxGeometry x="-39" y="340" width="438" height="40" as="geometry"/>
        </mxCell>
        <mxCell id="Ti00Svf3lrXy-y9HDl-r-2" value="" style="endArrow=classic;startArrow=classic;html=1;entryX=0.5;entryY=1;entryDx=0;entryDy=0;exitX=0.5;exitY=0;exitDx=0;exitDy=0;" parent="1" source="baZqyHviwPIkWMM0uBHd-3" target="baZqyHviwPIkWMM0uBHd-12" edge="1">
          <mxGeometry width="50" height="50" relative="1" as="geometry">
            <mxPoint x="230" y="510" as="sourcePoint"/>
            <mxPoint x="280" y="460" as="targetPoint"/>
          </mxGeometry>
        </mxCell>
        <mxCell id="Ti00Svf3lrXy-y9HDl-r-3" value="接口1：创建视频剪辑任务" style="rounded=1;whiteSpace=wrap;html=1;" parent="1" vertex="1">
          <mxGeometry x="240" y="400" width="150" height="30" as="geometry"/>
        </mxCell>
        <mxCell id="Ti00Svf3lrXy-y9HDl-r-4" value="接口4：视频导出" style="rounded=1;whiteSpace=wrap;html=1;" parent="1" vertex="1">
          <mxGeometry x="-20" y="400" width="179" height="30" as="geometry"/>
        </mxCell>
        <mxCell id="Ti00Svf3lrXy-y9HDl-r-5" value="接口2：取消视频剪辑任务" style="rounded=1;whiteSpace=wrap;html=1;" parent="1" vertex="1">
          <mxGeometry x="240" y="437.5" width="150" height="30" as="geometry"/>
        </mxCell>
        <mxCell id="Ti00Svf3lrXy-y9HDl-r-6" value="接口3：查询任务进度" style="rounded=1;whiteSpace=wrap;html=1;" parent="1" vertex="1">
          <mxGeometry x="241" y="475" width="139" height="30" as="geometry"/>
        </mxCell>
        <mxCell id="Ti00Svf3lrXy-y9HDl-r-7" value="接口5：查询任务进度" style="rounded=1;whiteSpace=wrap;html=1;" parent="1" vertex="1">
          <mxGeometry x="-10" y="445" width="139" height="30" as="geometry"/>
        </mxCell>
        <mxCell id="Ti00Svf3lrXy-y9HDl-r-9" value="" style="endArrow=classic;startArrow=classic;html=1;entryX=0.5;entryY=1;entryDx=0;entryDy=0;exitX=0.5;exitY=0;exitDx=0;exitDy=0;" parent="1" source="baZqyHviwPIkWMM0uBHd-12" target="Ti00Svf3lrXy-y9HDl-r-8" edge="1">
          <mxGeometry width="50" height="50" relative="1" as="geometry">
            <mxPoint x="180" y="270" as="sourcePoint"/>
            <mxPoint x="230" y="220" as="targetPoint"/>
          </mxGeometry>
        </mxCell>
        <mxCell id="Ti00Svf3lrXy-y9HDl-r-10" value="添加视频到云点播" style="rounded=1;whiteSpace=wrap;html=1;" parent="1" vertex="1">
          <mxGeometry x="255" y="130" width="129" height="30" as="geometry"/>
        </mxCell>
        <mxCell id="Ti00Svf3lrXy-y9HDl-r-11" value="创建项目" style="rounded=1;whiteSpace=wrap;html=1;" parent="1" vertex="1">
          <mxGeometry x="33" y="130" width="129" height="30" as="geometry"/>
        </mxCell>
        <mxCell id="Ti00Svf3lrXy-y9HDl-r-12" value="删除项目" style="rounded=1;whiteSpace=wrap;html=1;" parent="1" vertex="1">
          <mxGeometry x="33" y="170" width="129" height="30" as="geometry"/>
        </mxCell>
        <mxCell id="Ti00Svf3lrXy-y9HDl-r-13" value="导入项目素材" style="rounded=1;whiteSpace=wrap;html=1;" parent="1" vertex="1">
          <mxGeometry x="33" y="210" width="129" height="30" as="geometry"/>
        </mxCell>
        <mxCell id="Ti00Svf3lrXy-y9HDl-r-14" value="导出视频编辑项目" style="rounded=1;whiteSpace=wrap;html=1;" parent="1" vertex="1">
          <mxGeometry x="33" y="250" width="129" height="30" as="geometry"/>
        </mxCell>
        <mxCell id="Ti00Svf3lrXy-y9HDl-r-15" value="从云点播下载视频" style="rounded=1;whiteSpace=wrap;html=1;" parent="1" vertex="1">
          <mxGeometry x="255" y="170" width="129" height="30" as="geometry"/>
        </mxCell>
        <mxCell id="Ti00Svf3lrXy-y9HDl-r-16" value="获取任务详情" style="rounded=1;whiteSpace=wrap;html=1;" parent="1" vertex="1">
          <mxGeometry x="-110" y="250" width="129" height="30" as="geometry"/>
        </mxCell>
      </root>
    </mxGraphModel>
  </diagram>
  <diagram id="wVNUzEjIN0QSput9qm58" name="Page-2">
    <mxGraphModel dx="2000" dy="1819" grid="1" gridSize="10" guides="1" tooltips="1" connect="1" arrows="1" fold="1" page="1" pageScale="1" pageWidth="827" pageHeight="1169" math="0" shadow="0">
      <root>
        <mxCell id="LAGxcHq5mjR_oOuz3BJ9-0"/>
        <mxCell id="LAGxcHq5mjR_oOuz3BJ9-1" parent="LAGxcHq5mjR_oOuz3BJ9-0"/>
        <mxCell id="4s5rcToTfAB99ln6knpE-0" value="前端" style="rounded=0;whiteSpace=wrap;html=1;" vertex="1" parent="LAGxcHq5mjR_oOuz3BJ9-1">
          <mxGeometry x="105" y="120" width="120" height="40" as="geometry"/>
        </mxCell>
        <mxCell id="4s5rcToTfAB99ln6knpE-1" value="v.huya" style="rounded=0;whiteSpace=wrap;html=1;" vertex="1" parent="LAGxcHq5mjR_oOuz3BJ9-1">
          <mxGeometry x="60" y="320" width="300" height="40" as="geometry"/>
        </mxCell>
        <mxCell id="4s5rcToTfAB99ln6knpE-2" value="云剪" style="rounded=0;whiteSpace=wrap;html=1;" vertex="1" parent="LAGxcHq5mjR_oOuz3BJ9-1">
          <mxGeometry x="440" y="200" width="120" height="40" as="geometry"/>
        </mxCell>
        <mxCell id="4s5rcToTfAB99ln6knpE-3" value="&lt;font style=&quot;font-size: 14px&quot;&gt;&amp;nbsp; &amp;nbsp; 数据表：&lt;br&gt;upload_list&lt;/font&gt;" style="rounded=0;whiteSpace=wrap;html=1;" vertex="1" parent="LAGxcHq5mjR_oOuz3BJ9-1">
          <mxGeometry x="20" y="520" width="120" height="60" as="geometry"/>
        </mxCell>
        <mxCell id="4s5rcToTfAB99ln6knpE-4" value="&lt;font style=&quot;font-size: 14px&quot;&gt;&amp;nbsp; &amp;nbsp; 数据表：&lt;br&gt;v_video&lt;/font&gt;" style="rounded=0;whiteSpace=wrap;html=1;" vertex="1" parent="LAGxcHq5mjR_oOuz3BJ9-1">
          <mxGeometry x="180" y="520" width="120" height="60" as="geometry"/>
        </mxCell>
        <mxCell id="4s5rcToTfAB99ln6knpE-5" value="" style="endArrow=classic;html=1;exitX=0.25;exitY=1;exitDx=0;exitDy=0;entryX=0.25;entryY=0;entryDx=0;entryDy=0;" edge="1" parent="LAGxcHq5mjR_oOuz3BJ9-1" source="4s5rcToTfAB99ln6knpE-0" target="4s5rcToTfAB99ln6knpE-1">
          <mxGeometry width="50" height="50" relative="1" as="geometry">
            <mxPoint x="260" y="280" as="sourcePoint"/>
            <mxPoint x="310" y="230" as="targetPoint"/>
          </mxGeometry>
        </mxCell>
        <mxCell id="4s5rcToTfAB99ln6knpE-6" value="&lt;div style=&quot;text-align: left&quot;&gt;&lt;span style=&quot;background-color: rgb(153 , 255 , 255)&quot;&gt;(1) 导出视频&lt;/span&gt;&lt;/div&gt;&lt;div style=&quot;text-align: left&quot;&gt;&lt;span style=&quot;background-color: rgb(153 , 255 , 255)&quot;&gt;&amp;nbsp; 接口：【exportVideo】&lt;/span&gt;&lt;/div&gt;&lt;div style=&quot;text-align: left&quot;&gt;&lt;span style=&quot;background-color: rgb(153 , 255 , 255)&quot;&gt;&amp;nbsp; 参数：taskId&lt;/span&gt;&lt;/div&gt;&lt;div style=&quot;text-align: left&quot;&gt;&lt;span style=&quot;background-color: rgb(153 , 255 , 255)&quot;&gt;&lt;span&gt;&amp;nbsp; 返回：&lt;/span&gt;&lt;span&gt;fuid&lt;/span&gt;&lt;/span&gt;&lt;/div&gt;" style="text;html=1;strokeColor=none;fillColor=none;align=center;verticalAlign=middle;whiteSpace=wrap;rounded=0;" vertex="1" parent="LAGxcHq5mjR_oOuz3BJ9-1">
          <mxGeometry y="190" width="145" height="20" as="geometry"/>
        </mxCell>
        <mxCell id="4s5rcToTfAB99ln6knpE-7" value="CME前端" style="rounded=0;whiteSpace=wrap;html=1;" vertex="1" parent="LAGxcHq5mjR_oOuz3BJ9-1">
          <mxGeometry x="80" y="-10" width="120" height="30" as="geometry"/>
        </mxCell>
        <mxCell id="4s5rcToTfAB99ln6knpE-8" value="" style="endArrow=classic;html=1;exitX=0.5;exitY=1;exitDx=0;exitDy=0;entryX=0.25;entryY=0;entryDx=0;entryDy=0;" edge="1" parent="LAGxcHq5mjR_oOuz3BJ9-1" source="4s5rcToTfAB99ln6knpE-7" target="4s5rcToTfAB99ln6knpE-0">
          <mxGeometry width="50" height="50" relative="1" as="geometry">
            <mxPoint x="-20" y="150" as="sourcePoint"/>
            <mxPoint x="30" y="100" as="targetPoint"/>
          </mxGeometry>
        </mxCell>
        <mxCell id="4s5rcToTfAB99ln6knpE-9" value="" style="endArrow=classic;html=1;entryX=0;entryY=0.5;entryDx=0;entryDy=0;exitX=0.594;exitY=0.975;exitDx=0;exitDy=0;rounded=0;exitPerimeter=0;" edge="1" parent="LAGxcHq5mjR_oOuz3BJ9-1" source="4s5rcToTfAB99ln6knpE-11" target="4s5rcToTfAB99ln6knpE-3">
          <mxGeometry width="50" height="50" relative="1" as="geometry">
            <mxPoint x="-440" y="370" as="sourcePoint"/>
            <mxPoint x="110" y="470" as="targetPoint"/>
            <Array as="points">
              <mxPoint x="-289" y="550"/>
            </Array>
          </mxGeometry>
        </mxCell>
        <mxCell id="4s5rcToTfAB99ln6knpE-10" value="&lt;span style=&quot;font-size: 14px&quot;&gt;参数：&lt;br&gt;&amp;nbsp; &amp;nbsp; (a) fuid = taskId + 随机数&lt;br&gt;&amp;nbsp; &amp;nbsp; (b) yyuid （用户ID）&lt;br&gt;&amp;nbsp; &amp;nbsp; (c)&amp;nbsp;&lt;/span&gt;&lt;span style=&quot;color: rgb(84 , 84 , 84) ; font-family: &amp;#34;segoe ui&amp;#34; , &amp;#34;tahoma&amp;#34; , sans-serif ; font-weight: 700 ; white-space: pre-wrap&quot;&gt;fname   &lt;/span&gt;&lt;span style=&quot;font-size: 14px&quot;&gt;taskId.mp4&lt;br&gt;&lt;/span&gt;&lt;span style=&quot;font-size: 14px&quot;&gt;&amp;nbsp; &amp;nbsp; (d)&amp;nbsp;&lt;/span&gt;&lt;span style=&quot;color: rgb(84 , 84 , 84) ; font-family: &amp;#34;segoe ui&amp;#34; , &amp;#34;tahoma&amp;#34; , sans-serif ; font-weight: 700 ; white-space: pre-wrap&quot;&gt;channelId :  &lt;/span&gt;&lt;span style=&quot;color: rgb(34 , 34 , 34) ; font-family: &amp;#34;consolas&amp;#34; , &amp;#34;lucida console&amp;#34; , &amp;#34;courier new&amp;#34; , monospace ; white-space: pre-wrap&quot;&gt;vhuyaunknown&lt;/span&gt;&lt;span style=&quot;font-size: 14px&quot;&gt;&lt;br&gt;&lt;/span&gt;" style="text;html=1;strokeColor=none;fillColor=none;align=left;verticalAlign=middle;whiteSpace=wrap;rounded=0;" vertex="1" parent="LAGxcHq5mjR_oOuz3BJ9-1">
          <mxGeometry x="-250" y="200" width="230" height="90" as="geometry"/>
        </mxCell>
        <mxCell id="4s5rcToTfAB99ln6knpE-11" value="v.upload" style="rounded=0;whiteSpace=wrap;html=1;" vertex="1" parent="LAGxcHq5mjR_oOuz3BJ9-1">
          <mxGeometry x="-390" y="320" width="170" height="40" as="geometry"/>
        </mxCell>
        <mxCell id="4s5rcToTfAB99ln6knpE-12" value="" style="endArrow=classic;html=1;exitX=0;exitY=0.5;exitDx=0;exitDy=0;entryX=1;entryY=0.5;entryDx=0;entryDy=0;" edge="1" parent="LAGxcHq5mjR_oOuz3BJ9-1" source="4s5rcToTfAB99ln6knpE-1" target="4s5rcToTfAB99ln6knpE-11">
          <mxGeometry width="50" height="50" relative="1" as="geometry">
            <mxPoint x="-80" y="430" as="sourcePoint"/>
            <mxPoint x="-30" y="380" as="targetPoint"/>
          </mxGeometry>
        </mxCell>
        <mxCell id="4s5rcToTfAB99ln6knpE-14" value="&lt;span style=&quot;background-color: rgb(153 , 255 , 255)&quot;&gt;&lt;span style=&quot;white-space: nowrap&quot;&gt;(2)&amp;nbsp;&amp;nbsp;&lt;/span&gt;&lt;span style=&quot;text-align: left&quot;&gt;请求&amp;nbsp;&amp;nbsp;&lt;/span&gt;&lt;span style=&quot;text-align: left ; color: rgb(34 , 34 , 34) ; font-family: &amp;#34;consolas&amp;#34; , &amp;#34;lucida console&amp;#34; , &amp;#34;courier new&amp;#34; , monospace ; white-space: pre-wrap&quot;&gt;&lt;b&gt;&lt;font style=&quot;font-size: 14px&quot;&gt;upload/init&lt;/font&gt;&lt;/b&gt; 接口  &lt;/span&gt;&lt;span style=&quot;text-align: left&quot;&gt;【占位】&lt;/span&gt;&lt;/span&gt;" style="text;html=1;strokeColor=none;fillColor=none;align=center;verticalAlign=middle;whiteSpace=wrap;rounded=0;" vertex="1" parent="LAGxcHq5mjR_oOuz3BJ9-1">
          <mxGeometry x="-160" y="310" width="170" height="20" as="geometry"/>
        </mxCell>
        <mxCell id="4s5rcToTfAB99ln6knpE-15" value="(3) 入 库" style="text;html=1;strokeColor=none;fillColor=none;align=center;verticalAlign=middle;whiteSpace=wrap;rounded=0;" vertex="1" parent="LAGxcHq5mjR_oOuz3BJ9-1">
          <mxGeometry x="-230" y="520" width="80" height="20" as="geometry"/>
        </mxCell>
        <mxCell id="4s5rcToTfAB99ln6knpE-16" value="" style="endArrow=classic;html=1;exitX=1;exitY=0.75;exitDx=0;exitDy=0;entryX=0;entryY=0.75;entryDx=0;entryDy=0;" edge="1" parent="LAGxcHq5mjR_oOuz3BJ9-1" source="4s5rcToTfAB99ln6knpE-11" target="4s5rcToTfAB99ln6knpE-1">
          <mxGeometry width="50" height="50" relative="1" as="geometry">
            <mxPoint x="-180" y="480" as="sourcePoint"/>
            <mxPoint x="-130" y="430" as="targetPoint"/>
          </mxGeometry>
        </mxCell>
        <mxCell id="4s5rcToTfAB99ln6knpE-17" value="&lt;span style=&quot;background-color: rgb(153 , 255 , 255)&quot;&gt;(4) 返回&amp;nbsp; vid&lt;/span&gt;" style="text;html=1;strokeColor=none;fillColor=none;align=center;verticalAlign=middle;whiteSpace=wrap;rounded=0;" vertex="1" parent="LAGxcHq5mjR_oOuz3BJ9-1">
          <mxGeometry x="-150" y="350" width="80" height="20" as="geometry"/>
        </mxCell>
        <mxCell id="4s5rcToTfAB99ln6knpE-18" value="CME后端" style="rounded=0;whiteSpace=wrap;html=1;" vertex="1" parent="LAGxcHq5mjR_oOuz3BJ9-1">
          <mxGeometry x="440" y="-20" width="120" height="40" as="geometry"/>
        </mxCell>
        <mxCell id="4s5rcToTfAB99ln6knpE-20" value="" style="endArrow=classic;startArrow=classic;html=1;entryX=0.5;entryY=1;entryDx=0;entryDy=0;exitX=0.5;exitY=0;exitDx=0;exitDy=0;" edge="1" parent="LAGxcHq5mjR_oOuz3BJ9-1" source="4s5rcToTfAB99ln6knpE-2" target="4s5rcToTfAB99ln6knpE-18">
          <mxGeometry width="50" height="50" relative="1" as="geometry">
            <mxPoint x="490" y="100" as="sourcePoint"/>
            <mxPoint x="540" y="50" as="targetPoint"/>
          </mxGeometry>
        </mxCell>
        <mxCell id="4s5rcToTfAB99ln6knpE-21" value="" style="endArrow=classic;html=1;exitX=1;exitY=0.5;exitDx=0;exitDy=0;entryX=0.5;entryY=1;entryDx=0;entryDy=0;rounded=0;" edge="1" parent="LAGxcHq5mjR_oOuz3BJ9-1" source="4s5rcToTfAB99ln6knpE-1" target="4s5rcToTfAB99ln6knpE-2">
          <mxGeometry width="50" height="50" relative="1" as="geometry">
            <mxPoint x="460" y="370" as="sourcePoint"/>
            <mxPoint x="510" y="320" as="targetPoint"/>
            <Array as="points">
              <mxPoint x="500" y="340"/>
            </Array>
          </mxGeometry>
        </mxCell>
        <mxCell id="4s5rcToTfAB99ln6knpE-22" value="(6) 导出视频&lt;br&gt;【Thrift】&lt;br&gt;导出异步执行，请求马上返回" style="text;html=1;strokeColor=none;fillColor=none;align=center;verticalAlign=middle;whiteSpace=wrap;rounded=0;" vertex="1" parent="LAGxcHq5mjR_oOuz3BJ9-1">
          <mxGeometry x="370" y="270" width="120" height="50" as="geometry"/>
        </mxCell>
        <mxCell id="4s5rcToTfAB99ln6knpE-24" value="&lt;font style=&quot;font-size: 14px&quot;&gt;&amp;nbsp; &amp;nbsp; 数据表：&lt;br&gt;cme_export&lt;/font&gt;" style="rounded=0;whiteSpace=wrap;html=1;" vertex="1" parent="LAGxcHq5mjR_oOuz3BJ9-1">
          <mxGeometry x="360" y="520" width="120" height="60" as="geometry"/>
        </mxCell>
        <mxCell id="4s5rcToTfAB99ln6knpE-25" value="" style="endArrow=classic;html=1;exitX=0.75;exitY=1;exitDx=0;exitDy=0;entryX=0.25;entryY=0;entryDx=0;entryDy=0;" edge="1" parent="LAGxcHq5mjR_oOuz3BJ9-1" source="4s5rcToTfAB99ln6knpE-1" target="4s5rcToTfAB99ln6knpE-24">
          <mxGeometry width="50" height="50" relative="1" as="geometry">
            <mxPoint x="300" y="390" as="sourcePoint"/>
            <mxPoint x="550" y="410" as="targetPoint"/>
          </mxGeometry>
        </mxCell>
        <mxCell id="4s5rcToTfAB99ln6knpE-26" value="&lt;span style=&quot;background-color: rgb(153 , 255 , 255)&quot;&gt;(5) 入库&amp;nbsp;&lt;br&gt;&lt;/span&gt;" style="text;html=1;strokeColor=none;fillColor=none;align=center;verticalAlign=middle;whiteSpace=wrap;rounded=0;" vertex="1" parent="LAGxcHq5mjR_oOuz3BJ9-1">
          <mxGeometry x="260" y="410" width="60" height="20" as="geometry"/>
        </mxCell>
        <mxCell id="4s5rcToTfAB99ln6knpE-27" value="(8) 导出视频&lt;br&gt;得到 Vod 的 Url" style="text;html=1;strokeColor=none;fillColor=none;align=center;verticalAlign=middle;whiteSpace=wrap;rounded=0;" vertex="1" parent="LAGxcHq5mjR_oOuz3BJ9-1">
          <mxGeometry x="480" y="80" width="140" height="20" as="geometry"/>
        </mxCell>
        <mxCell id="4s5rcToTfAB99ln6knpE-28" value="定时任务" style="rounded=0;whiteSpace=wrap;html=1;" vertex="1" parent="LAGxcHq5mjR_oOuz3BJ9-1">
          <mxGeometry x="470" y="370" width="120" height="30" as="geometry"/>
        </mxCell>
        <mxCell id="4s5rcToTfAB99ln6knpE-29" value="" style="endArrow=none;dashed=1;html=1;exitX=0.75;exitY=1;exitDx=0;exitDy=0;entryX=0.5;entryY=0;entryDx=0;entryDy=0;rounded=0;" edge="1" parent="LAGxcHq5mjR_oOuz3BJ9-1" source="4s5rcToTfAB99ln6knpE-2" target="4s5rcToTfAB99ln6knpE-28">
          <mxGeometry width="50" height="50" relative="1" as="geometry">
            <mxPoint x="600" y="260" as="sourcePoint"/>
            <mxPoint x="650" y="210" as="targetPoint"/>
            <Array as="points"/>
          </mxGeometry>
        </mxCell>
        <mxCell id="4s5rcToTfAB99ln6knpE-31" value="&lt;font style=&quot;font-size: 14px&quot;&gt;&amp;nbsp; &amp;nbsp; 数据表：&lt;br&gt;cme_record&lt;/font&gt;" style="rounded=0;whiteSpace=wrap;html=1;" vertex="1" parent="LAGxcHq5mjR_oOuz3BJ9-1">
          <mxGeometry x="530" y="520" width="120" height="60" as="geometry"/>
        </mxCell>
        <mxCell id="4s5rcToTfAB99ln6knpE-32" value="" style="endArrow=classic;html=1;exitX=1;exitY=0.5;exitDx=0;exitDy=0;entryX=1;entryY=0.5;entryDx=0;entryDy=0;rounded=0;" edge="1" parent="LAGxcHq5mjR_oOuz3BJ9-1" source="4s5rcToTfAB99ln6knpE-2" target="4s5rcToTfAB99ln6knpE-31">
          <mxGeometry width="50" height="50" relative="1" as="geometry">
            <mxPoint x="660" y="270" as="sourcePoint"/>
            <mxPoint x="710" y="220" as="targetPoint"/>
            <Array as="points">
              <mxPoint x="680" y="220"/>
              <mxPoint x="680" y="550"/>
            </Array>
          </mxGeometry>
        </mxCell>
        <mxCell id="4s5rcToTfAB99ln6knpE-33" value="(9)&amp;nbsp; VodUrl 入库&amp;nbsp;" style="text;html=1;strokeColor=none;fillColor=none;align=center;verticalAlign=middle;whiteSpace=wrap;rounded=0;" vertex="1" parent="LAGxcHq5mjR_oOuz3BJ9-1">
          <mxGeometry x="580" y="190" width="120" height="20" as="geometry"/>
        </mxCell>
        <mxCell id="4s5rcToTfAB99ln6knpE-34" value="" style="endArrow=classic;html=1;exitX=0.5;exitY=1;exitDx=0;exitDy=0;entryX=0.75;entryY=0;entryDx=0;entryDy=0;" edge="1" parent="LAGxcHq5mjR_oOuz3BJ9-1" source="4s5rcToTfAB99ln6knpE-28" target="4s5rcToTfAB99ln6knpE-24">
          <mxGeometry width="50" height="50" relative="1" as="geometry">
            <mxPoint x="520" y="480" as="sourcePoint"/>
            <mxPoint x="570" y="430" as="targetPoint"/>
          </mxGeometry>
        </mxCell>
        <mxCell id="4s5rcToTfAB99ln6knpE-35" value="" style="endArrow=classic;html=1;exitX=0.5;exitY=1;exitDx=0;exitDy=0;entryX=0.75;entryY=0;entryDx=0;entryDy=0;" edge="1" parent="LAGxcHq5mjR_oOuz3BJ9-1" source="4s5rcToTfAB99ln6knpE-28" target="4s5rcToTfAB99ln6knpE-31">
          <mxGeometry width="50" height="50" relative="1" as="geometry">
            <mxPoint x="550" y="500" as="sourcePoint"/>
            <mxPoint x="600" y="450" as="targetPoint"/>
          </mxGeometry>
        </mxCell>
        <mxCell id="4s5rcToTfAB99ln6knpE-36" value="&amp;nbsp; &amp;nbsp; &amp;nbsp; &amp;nbsp; &amp;nbsp; &amp;nbsp; 【定时任务】&lt;br&gt;(10-1)下载视频&lt;br&gt;(10-2) rsync&lt;br&gt;(10-3) 调用上传接口&amp;nbsp;&amp;nbsp;&lt;span style=&quot;color: rgb(128 , 128 , 128) ; background-color: rgb(202 , 230 , 202) ; font-family: &amp;#34;consolas&amp;#34; ; font-size: 10.5pt&quot;&gt;DotRsync&lt;/span&gt;" style="text;html=1;strokeColor=none;fillColor=none;align=left;verticalAlign=middle;whiteSpace=wrap;rounded=0;" vertex="1" parent="LAGxcHq5mjR_oOuz3BJ9-1">
          <mxGeometry x="600" y="345" width="200" height="80" as="geometry"/>
        </mxCell>
        <mxCell id="4s5rcToTfAB99ln6knpE-37" value="" style="endArrow=classic;html=1;exitX=0.75;exitY=1;exitDx=0;exitDy=0;entryX=0.461;entryY=-0.037;entryDx=0;entryDy=0;entryPerimeter=0;" edge="1" parent="LAGxcHq5mjR_oOuz3BJ9-1" source="4s5rcToTfAB99ln6knpE-0" target="4s5rcToTfAB99ln6knpE-1">
          <mxGeometry width="50" height="50" relative="1" as="geometry">
            <mxPoint x="320" y="250" as="sourcePoint"/>
            <mxPoint x="370" y="200" as="targetPoint"/>
          </mxGeometry>
        </mxCell>
        <mxCell id="4s5rcToTfAB99ln6knpE-39" value="&lt;div style=&quot;text-align: left&quot;&gt;&lt;span&gt;(7) 提交（视频编辑页）&lt;/span&gt;&lt;/div&gt;&lt;div style=&quot;text-align: left&quot;&gt;&lt;span&gt;接口：【save2】&lt;/span&gt;&lt;/div&gt;&lt;div style=&quot;text-align: left&quot;&gt;&lt;span&gt;参数：&lt;/span&gt;&lt;/div&gt;&lt;div style=&quot;text-align: left&quot;&gt;&lt;span&gt;&amp;nbsp; (a) fuid&lt;/span&gt;&lt;/div&gt;&lt;div style=&quot;text-align: left&quot;&gt;&lt;span&gt;&amp;nbsp; (b) 标题、标签等&lt;/span&gt;&lt;/div&gt;" style="text;html=1;strokeColor=none;fillColor=none;align=center;verticalAlign=middle;whiteSpace=wrap;rounded=0;" vertex="1" parent="LAGxcHq5mjR_oOuz3BJ9-1">
          <mxGeometry x="200" y="190" width="130" height="30" as="geometry"/>
        </mxCell>
        <mxCell id="4s5rcToTfAB99ln6knpE-40" value="" style="endArrow=classic;html=1;exitX=0.25;exitY=1;exitDx=0;exitDy=0;entryX=0.5;entryY=0;entryDx=0;entryDy=0;" edge="1" parent="LAGxcHq5mjR_oOuz3BJ9-1" source="4s5rcToTfAB99ln6knpE-1" target="4s5rcToTfAB99ln6knpE-3">
          <mxGeometry width="50" height="50" relative="1" as="geometry">
            <mxPoint x="140" y="460" as="sourcePoint"/>
            <mxPoint x="190" y="410" as="targetPoint"/>
          </mxGeometry>
        </mxCell>
        <mxCell id="4s5rcToTfAB99ln6knpE-41" value="(7-1)&amp;nbsp; 查找记录：&lt;br&gt;通过 fuid,yyuid" style="text;html=1;strokeColor=none;fillColor=none;align=center;verticalAlign=middle;whiteSpace=wrap;rounded=0;" vertex="1" parent="LAGxcHq5mjR_oOuz3BJ9-1">
          <mxGeometry x="5" y="405" width="100" height="20" as="geometry"/>
        </mxCell>
        <mxCell id="4s5rcToTfAB99ln6knpE-42" value="" style="endArrow=classic;html=1;exitX=0.5;exitY=1;exitDx=0;exitDy=0;entryX=0.25;entryY=0;entryDx=0;entryDy=0;" edge="1" parent="LAGxcHq5mjR_oOuz3BJ9-1" source="4s5rcToTfAB99ln6knpE-1" target="4s5rcToTfAB99ln6knpE-4">
          <mxGeometry width="50" height="50" relative="1" as="geometry">
            <mxPoint x="190" y="480" as="sourcePoint"/>
            <mxPoint x="240" y="430" as="targetPoint"/>
          </mxGeometry>
        </mxCell>
        <mxCell id="4s5rcToTfAB99ln6knpE-43" value="(7-2)&amp;nbsp; 入库" style="text;html=1;strokeColor=none;fillColor=none;align=center;verticalAlign=middle;whiteSpace=wrap;rounded=0;" vertex="1" parent="LAGxcHq5mjR_oOuz3BJ9-1">
          <mxGeometry x="125" y="410" width="100" height="20" as="geometry"/>
        </mxCell>
      </root>
    </mxGraphModel>
  </diagram>
</mxfile>
